HIERARCHY
ROOT Hips
{
	OFFSET 0.000000 0.000000 0.000000 
	CHANNELS 6 Xposition Yposition Zposition Yrotation Zrotation Xrotation 
	JOINT Lumbar
	{
		OFFSET 0.000000 0.000000 0.000000 
		CHANNELS 3 Zrotation Xrotation Yrotation
		JOINT Neck
		{
			OFFSET 0.000000 0.445665 0.000000 
			CHANNELS 3 Zrotation Xrotation Yrotation
			End Site
			{
				OFFSET 0.000000 0.227535 0.000000 
			}
		}
		JOINT RightShoulder
		{
			OFFSET 0.019635 0.377685 0.194865 
			CHANNELS 3 Zrotation Xrotation Yrotation
			JOINT RightElbow
			{
				OFFSET 0.000000 -0.243375 0.000000 
				CHANNELS 2 Zrotation Yrotation
				JOINT RightWrist
				{
					OFFSET 0.000000 -0.264825 0.000000 
					CHANNELS 2 Zrotation Xrotation
					End Site
					{
						OFFSET 0.006600 -0.176220 0.000990 
					}
				}
			}
		}
		JOINT LeftShoulder
		{
			OFFSET 0.019635 0.377685 -0.194865 
			CHANNELS 3 Zrotation Xrotation Yrotation
			JOINT LeftElbow
			{
				OFFSET 0.000000 -0.243375 0.000000 
				CHANNELS 2 Zrotation Yrotation
				JOINT LeftWrist
				{
					OFFSET 0.000000 -0.264825 0.000000 
					CHANNELS 2 Zrotation Xrotation
					End Site
					{
						OFFSET 0.006600 -0.176220 -0.000990 
					}
				}
			}
		}
	}
	JOINT RightHip
	{
		OFFSET 0.052140 -0.069960 0.075570 
		CHANNELS 3 Zrotation Xrotation Yrotation
		JOINT RightKnee
		{
			OFFSET 0.000000 -0.402270 0.000000 
			CHANNELS 1 Zrotation
			JOINT RightAnkle
			{
				OFFSET 0.000000 -0.404085 0.000000 
				CHANNELS 3 Zrotation Xrotation Yrotation
				End Site
				{
					OFFSET 0.204105 -0.089430 0.008415 
				}
			}
		}
	}
	JOINT LeftHip
	{
		OFFSET 0.052140 -0.069960 -0.075570 
		CHANNELS 3 Zrotation Xrotation Yrotation
		JOINT LeftKnee
		{
			OFFSET 0.000000 -0.402270 0.000000 
			CHANNELS 1 Zrotation
			JOINT LeftAnkle
			{
				OFFSET 0.000000 -0.404085 0.000000 
				CHANNELS 3 Zrotation Xrotation Yrotation
				End Site
				{
					OFFSET 0.204105 -0.089430 -0.008415 
				}
			}
		}
	}
}
MOTION
Frames: 25
Frame Time: 0.02
0.00028 2e-05 -0.00027 -180.71539 -35.62162 -3.76346 43.04289 2.68773 -3.2493 -11.58407 -1.39386 -1.05175 89.73637 -95.23897 -87.13747 5.78711 65.22863 -13.0487 1.59263 86.51116 101.36374 -55.63323 5.78719 -105.12209 11.53277 -3.33663 40.07549 -3.01515 -9.2735 -22.39318 -6.74005 -1.93687 -3.18111 43.60105 8.20863 4.70216 -27.82223 -6.52999 1.95568 3.15272
0.00037 3e-05 -0.00033 -180.60636 -35.38148 -3.74722 42.80582 2.68168 -3.26901 -11.59368 -1.37912 -1.07916 89.84339 -95.23957 -87.13747 5.78711 65.23171 -13.06095 1.5869 86.57083 101.33512 -55.63332 5.78717 -105.1109 11.55644 -3.30802 39.77803 -3.01155 -9.3305 -22.34911 -6.74014 -1.93947 -3.18262 43.3364 8.22632 4.76905 -27.78858 -6.53156 1.93481 3.14489
0.00045 4e-05 -0.00039 -180.49765 -35.14227 -3.73102 42.56974 2.67565 -3.28863 -11.60333 -1.3644 -1.10649 89.94998 -95.24013 -87.13747 5.78711 65.23478 -13.07321 1.58121 86.63037 101.30656 -55.6334 5.78714 -105.09973 11.58011 -3.27947 39.4817 -3.008 -9.38748 -22.30523 -6.74023 -1.94205 -3.18412 43.07277 8.24413 4.83646 -27.75507 -6.53315 1.91392 3.13705
0.00054 6e-05 -0.00045 -180.38895 -34.90292 -3.71483 42.33346 2.66962 -3.30827 -11.61293 -1.3497 -1.13381 90.05665 -95.24072 -87.13747 5.78711 65.23785 -13.08543 1.5755 86.68986 101.27802 -55.63349 5.78711 -105.08858 11.60372 -3.25094 39.18522 -3.00441 -9.44433 -22.26131 -6.74032 -1.94465 -3.18563 42.80899 8.2618 4.90328 -27.72153 -6.53472 1.8931 3.12923
0.00062 7e-05 -0.00052 -180.27995 -34.66251 -3.69858 42.09603 2.66356 -3.32801 -11.62245 -1.335 -1.16121 90.16383 -95.24135 -87.13747 5.78711 65.24093 -13.09762 1.56975 86.74947 101.24946 -55.63358 5.78708 -105.07741 11.62729 -3.22236 38.88748 -3.00076 -9.50114 -22.21718 -6.74041 -1.94726 -3.18714 42.54407 8.27926 4.96922 -27.68783 -6.53628 1.87235 3.12145
0.0007 8e-05 -0.00058 -180.17185 -34.4258 -3.6825 41.8628 2.6576 -3.34736 -11.63237 -1.32024 -1.18837 90.26917 -95.24177 -87.13747 5.78711 65.24399 -13.11001 1.56416 86.80884 101.22088 -55.63366 5.78705 -105.06625 11.65116 -3.19389 38.5941 -2.99742 -9.5585 -22.17381 -6.74049 -1.94979 -3.18861 42.28312 8.29779 5.03969 -27.65471 -6.53792 1.85115 3.11347
0.00079 9e-05 -0.00064 -180.06208 -34.18207 -3.66611 41.62153 2.65146 -3.36747 -11.6415 -1.30562 -1.21599 90.37802 -95.24262 -87.13747 5.78711 65.24707 -13.12199 1.55826 86.8686 101.19237 -55.63375 5.78702 -105.05509 11.67443 -3.16522 38.29243 -2.99346 -9.61465 -22.12898 -6.74059 -1.95249 -3.19018 42.01462 8.31421 5.10115 -27.62049 -6.53939 1.83085 3.10589
0.00088 0.0001 -0.0007 -179.95379 -33.94454 -3.64999 41.38738 2.64548 -3.38692 -11.65134 -1.29086 -1.24319 90.48379 -95.24308 -87.13747 5.78711 65.25015 -13.13433 1.55264 86.92807 101.16381 -55.63383 5.787 -105.04392 11.69823 -3.13676 37.9981 -2.99008 -9.67199 -22.08545 -6.74067 -1.95502 -3.19165 41.7528 8.33249 5.17059 -27.58724 -6.54101 1.80977 3.09796
0.00095 0.00011 -0.00076 -179.84751 -33.71558 -3.63425 41.16305 2.63972 -3.4054 -11.66213 -1.27596 -1.26986 90.58521 -95.24303 -87.13747 5.78711 65.25315 -13.14722 1.54741 86.98695 101.13511 -55.63392 5.78697 -105.03277 11.72279 -3.1084 37.71389 -2.98735 -9.73055 -22.04368 -6.74072 -1.95737 -3.19302 41.50019 8.35343 5.25123 -27.55534 -6.54284 1.78755 3.08954
0.00106 0.00013 -0.00083 -179.73025 -33.44029 -3.61649 40.88555 2.63274 -3.42897 -11.66771 -1.26194 -1.29951 90.70988 -95.24582 -87.13747 5.78711 65.2564 -13.15728 1.54005 87.04852 101.10696 -55.63401 5.78694 -105.02159 11.74329 -3.07901 37.37489 -2.98074 -9.7814 -21.99231 -6.74094 -1.96086 -3.19503 41.19776 8.3602 5.27183 -27.51615 -6.54356 1.7713 3.08373
0.00111 0.00013 -0.00088 -179.6358 -33.26085 -3.60287 40.71812 2.6283 -3.4421 -11.68408 -1.24605 -1.32295 90.78662 -95.24267 -87.13747 5.78711 65.25926 -13.17307 1.5371 87.10484 101.07784 -55.63409 5.78691 -105.01043 11.77215 -3.0521 37.14927 -2.98241 -9.84894 -21.96086 -6.7408 -1.96188 -3.19566 40.99838 8.39611 5.4162 -27.49205 -6.54657 1.74282 3.07254
0.00095 0.00013 -0.00087 -179.60741 -33.36308 -3.60171 40.87347 2.63144 -3.42394 -11.73218 -1.22492 -1.32836 90.72145 -95.22258 -87.13745 5.78711 65.25967 -13.20678 1.54717 87.14296 101.04446 -55.6341 5.78691 -104.9998 11.82601 -3.02942 37.25679 -3.00616 -9.95871 -21.98751 -6.73968 -1.95662 -3.19268 41.102 8.51906 5.92732 -27.51217 -6.55635 1.67755 3.04526
0.00073 0.00013 -0.00084 -179.60135 -33.55842 -3.60452 41.13581 2.63705 -3.39576 -11.79072 -1.20194 -1.32768 90.61014 -95.19666 -87.13743 5.78711 65.25989 -13.24585 1.56147 87.1764 101.0104 -55.63409 5.78691 -104.98913 11.8879 -3.00968 37.47446 -3.0383 -10.08562 -22.03359 -6.73819 -1.9488 -3.18831 41.30572 8.66993 6.55754 -27.54695 -6.56834 1.60059 3.01282
0.00055 0.00013 -0.00081 -179.58269 -33.69861 -3.60475 41.33526 2.64113 -3.37396 -11.84312 -1.17986 -1.33044 90.52664 -95.1738 -87.1374 5.78711 65.26111 -13.28104 1.57325 87.21459 100.9777 -55.63409 5.78691 -104.97817 11.9448 -2.99031 37.62686 -3.06711 -10.20736 -22.06849 -6.73686 -1.94177 -3.18445 41.44998 8.80344 7.11577 -27.57313 -6.57899 1.53107 2.98358
0.00033 0.00012 -0.00079 -179.57411 -33.89193 -3.60817 41.59391 2.64686 -3.34456 -11.90145 -1.15748 -1.33046 90.41391 -95.1491 -87.13738 5.78711 65.2586 -13.3223 1.58767 87.24214 100.94057 -55.6341 5.78691 -104.96845 12.0074 -2.96385 37.84215 -3.09415 -10.31921 -22.11314 -6.73554 -1.93621 -3.18106 41.65193 8.95684 7.75033 -27.60733 -6.59106 1.45253 2.95069
0.00017 0.00012 -0.00076 -179.55021 -33.99822 -3.60603 41.75616 2.64982 -3.32842 -11.94986 -1.13534 -1.33462 90.35143 -95.12698 -87.13736 5.78711 65.26365 -13.35223 1.59745 87.2902 100.91249 -55.63409 5.78691 -104.95623 12.06002 -2.9527 37.95454 -3.12656 -10.45429 -22.14233 -6.73412 -1.92712 -3.17641 41.75932 9.07529 8.25326 -27.62853 -6.60069 1.39005 2.92422
0.00019 0.0001 -0.00069 -179.47512 -33.82765 -3.58634 41.61255 2.64384 -3.3531 -11.96864 -1.11406 -1.35273 90.43641 -95.11247 -87.13736 5.78711 65.29108 -13.34926 1.59474 87.40078 100.90985 -55.63402 5.78693 -104.93637 12.0832 -2.98453 37.73865 -3.17428 -10.66144 -22.12191 -6.73245 -1.90768 -3.1681 41.56487 9.09155 8.37057 -27.6083 -6.60313 1.37455 2.91644
0.00027 9e-05 -0.0006 -179.38452 -33.56895 -3.56115 41.37086 2.63511 -3.39113 -11.97701 -1.09316 -1.37501 90.574 -95.10093 -87.13737 5.78711 65.32589 -13.33475 1.58699 87.5313 100.9163 -55.63392 5.78696 -104.91413 12.09604 -3.0314 37.41875 -3.22662 -10.88903 -22.08567 -6.73072 -1.88501 -3.15867 41.27495 9.07147 8.35004 -27.57485 -6.60303 1.37568 2.91537
0.00033 7e-05 -0.00052 -179.30318 -33.35943 -3.53925 41.18272 2.62808 -3.42192 -11.98994 -1.07225 -1.39468 90.68926 -95.08868 -87.13737 5.78711 65.35629 -13.32571 1.58064 87.64956 100.91842 -55.63384 5.78699 -104.89348 12.11357 -3.07045 37.1575 -3.27519 -11.09939 -22.05801 -6.72907 -1.86461 -3.1501 41.03919 9.06724 8.38786 -27.5487 -6.60404 1.36935 2.91143
0.00038 5e-05 -0.00044 -179.21305 -33.1141 -3.5141 40.95985 2.61921 -3.45739 -12.00397 -1.05051 -1.41716 90.79643 -95.0736 -87.13737 5.78711 65.39093 -13.3159 1.57808 87.7811 100.92135 -55.63375 5.78702 -104.87072 12.13145 -3.11378 36.85137 -3.33112 -11.34418 -22.02502 -6.72716 -1.84071 -3.13999 40.76088 9.0667 8.44756 -27.51755 -6.60532 1.36216 2.90655
0.00046 4e-05 -0.00036 -179.13753 -32.92189 -3.4944 40.78531 2.61351 -3.48629 -12.01309 -1.03068 -1.43487 90.93329 -95.06511 -87.1374 5.78711 65.41873 -13.30489 1.5665 87.88984 100.92475 -55.63368 5.78704 -104.85175 12.14602 -3.15172 36.61344 -3.37267 -11.52151 -21.99927 -6.72578 -1.82341 -3.13286 40.54795 9.04958 8.42787 -27.49356 -6.60539 1.36092 2.90528
0.00061 5e-05 -0.00029 -179.10377 -32.89136 -3.49081 40.76166 2.61712 -3.495 -12.01126 -1.0156 -1.43823 91.14193 -95.07472 -87.13743 5.78711 65.42388 -13.29342 1.53022 87.93043 100.92732 -55.63367 5.78705 -104.84428 12.15417 -3.17114 36.58098 -3.37363 -11.51082 -21.99596 -6.72591 -1.82487 -3.13409 40.53174 8.99447 8.21809 -27.49168 -6.60276 1.37145 2.91231
0.00078 6e-05 -0.00022 -179.08555 -32.91791 -3.49291 40.7905 2.624 -3.49651 -12.00476 -1.00252 -1.43671 91.37841 -95.09074 -87.1375 5.78711 65.42228 -13.2811 1.48522 87.94757 100.93002 -55.63367 5.78704 -104.84064 12.15926 -3.18463 36.6215 -3.3599 -11.43103 -22.00062 -6.72657 -1.83314 -3.13838 40.58525 8.92397 7.93353 -27.49752 -6.59899 1.38753 2.92277
0.00094 7e-05 -0.00016 -179.06171 -32.92239 -3.49261 40.79936 2.62945 -3.50056 -12.00033 -0.98881 -1.43755 91.60057 -95.10345 -87.1376 5.78711 65.42502 -13.26913 1.44487 87.9756 100.93256 -55.63367 5.78704 -104.83493 12.16558 -3.20077 36.63373 -3.35259 -11.38038 -22.00249 -6.72696 -1.83851 -3.14137 40.61131 8.86107 7.68551 -27.50035 -6.5957 1.40154 2.93172
0.00111 8e-05 -9e-05 -179.03137 -32.90827 -3.49143 40.78942 2.6346 -3.50805 -11.99587 -0.97393 -1.43792 91.8314 -95.11803 -87.13751 5.78712 65.42257 -13.25697 1.4014 88.00301 100.93583 -55.63367 5.78704 -104.83047 12.17221 -3.21753 36.62268 -3.34631 -11.33919 -22.00041 -6.72743 -1.84303 -3.14399 40.61708 8.79437 7.42157 -27.50073 -6.59245 1.4143 2.94069
